<svg fill="#000000" width="256px" height="256px" viewBox="0 0 24 24" id="like" data-name="Flat Color"
  xmlns="http://www.w3.org/2000/svg" class="icon flat-color" stroke="#000000" stroke-width="1.5">
  <g id="SVGRepo_bgCarrier" stroke-width="0"></g>
  <g id="SVGRepo_tracerCarrier" stroke-linecap="round" stroke-linejoin="round" stroke="#CCCCCC" stroke-width="0.048">
  </g>
  <g id="SVGRepo_iconCarrier">
    <path id="primary"
      d="M21.36,9.15A3,3,0,0,0,19,8H17.07c0-.82.06-1.8,0-2.79A3.31,3.31,0,0,0,13.77,2a3.22,3.22,0,0,0-3.13,2.48C10.3,6,9.93,7.24,9.57,8.32a1,1,0,0,1-1,.68H7a1,1,0,0,0-1,1V20a1,1,0,0,0,.53.88A10.65,10.65,0,0,0,11.24,22h4.2a5,5,0,0,0,4.85-3.79l1.62-6.48A3,3,0,0,0,21.36,9.15Z"
      style="fill: #79CCBF;"></path>
    <rect id="secondary" x="2" y="8" width="6" height="14" rx="1" style="fill: #F4CE73;"></rect>
  </g>
</svg>