<svg width="256px" height="256px" viewBox="-1 0 20 20" xmlns="http://www.w3.org/2000/svg" fill="#000000">
  <g id="SVGRepo_bgCarrier" stroke-width="0"></g>
  <g id="SVGRepo_tracerCarrier" stroke-linecap="round" stroke-linejoin="round" stroke="#CCCCCC" stroke-width="0.08"></g>
  <g id="SVGRepo_iconCarrier">
    <g id="copy-4" transform="translate(-3 -2)">
      <path id="secondary" fill="#F4CE73"
        d="M19,3H16V4a1,1,0,0,1-1,1H13a1,1,0,0,1-1-1V3H9A1,1,0,0,0,8,4V16a1,1,0,0,0,1,1H19a1,1,0,0,0,1-1V4A1,1,0,0,0,19,3Z">
      </path>
      <path id="primary" d="M16,17v3a1,1,0,0,1-1,1H5a1,1,0,0,1-1-1V8A1,1,0,0,1,5,7H8" fill="none" stroke="#000000"
        stroke-linecap="round" stroke-linejoin="round" stroke-width="2"></path>
      <path id="primary-2" data-name="primary"
        d="M19,3H9A1,1,0,0,0,8,4V16a1,1,0,0,0,1,1H19a1,1,0,0,0,1-1V4A1,1,0,0,0,19,3ZM12,4a1,1,0,0,0,1,1h2a1,1,0,0,0,1-1V3H12Z"
        fill="none" stroke="#000000" stroke-linecap="round" stroke-linejoin="round" stroke-width="2"></path>
    </g>
  </g>
</svg>