<svg viewBox="0 0 1024 1024" version="1.1" xmlns="http://www.w3.org/2000/svg" fill="#fff">
  <g stroke-width="0"></g>
  <g stroke-linecap="round" stroke-linejoin="round"></g>
  <g>
    <path
      d="M514.845377 256.867231l-0.441294-0.135153-4.61158 0.065529c-3.393156-0.541635-6.038876-3.525237-6.038875-7.053546V137.082887L309.089478 331.74806l194.66415 194.733774V414.16059a7.180508 7.180508 0 0 1 5.86891-7.056618l5.664134-0.135153c94.043867 1.017742 170.247556 77.867503 170.247556 172.149936 0 94.957173-77.186619 172.146864-172.146863 172.146863-61.114691 0-116.324636-31.946246-147.594094-85.531284-11.328267-19.465084-18.721743-40.017534-21.87531-61.249844l-2.577119-17.08967-146.951094 21.566096 2.715344 17.298543c3.354248 21.298863 9.154559 42.798407 17.294447 64.027645l-0.065528 0.135153 3.288719 8.004735c49.821236 120.801062 165.434271 198.803718 294.542116 198.803718 176.556738 0 320.150511-143.589678 320.150511-320.147439 0-175.674148-142.169549-318.726287-317.46998-320.21604z"
      fill="#79CCBF"></path>
    <path
      d="M502.975475 137.625546L308.30723 332.289696l194.668245 194.736845v-98.418929l-96.454093-96.317916 96.454093-96.790952z"
      fill="#F4CE73"></path>
    <path
      d="M502.975475 403.780441l-71.525557-71.490745 71.525557-71.762075v-48.903835c-46.42808 46.462892-102.284096 102.288192-120.66591 120.66591 18.381813 18.381813 74.237829 74.207113 120.66591 120.668981v-49.178236z"
      fill="#FFFFFF"></path>
    <path
      d="M535.43264 226.410738l-0.069625-106.490217a24.468811 24.468811 0 0 0-15.12381-22.653463 24.435023 24.435023 0 0 0-26.656854 5.289392L281.685187 314.383989c-9.564113 9.564113-9.564113 25.097477 0 34.66159l211.89614 211.893068a24.335706 24.335706 0 0 0 26.656854 5.359016c9.154559-3.795543 15.12381-12.752492 15.12381-22.653463V440.814373c67.014318 10.651479 118.564897 68.37199 118.564897 138.304382 0 77.526549-63.079527 140.537476-140.540547 140.537476s-140.470923-63.010927-140.470924-140.537476c0-7.12317-3.121826-13.838834-8.54637-18.516966-5.359016-4.681204-12.481162-6.716688-19.534708-5.698946l-162.585823 23.809429c-12.752492 1.896236-21.840498 13.294127-20.822756 26.181772 14.245317 181.641352 168.281696 323.946054 350.739086 323.946054 193.920809 0 351.756827-157.769466 351.756827-351.756827-0.001024-186.190475-145.42448-338.597853-328.489033-350.672533z m-23.267794 653.455901c-124.802406 0-232.990225-77.731326-278.500904-188.08671l0.236517-0.33993h-0.336858c-8.852513-21.500568-15.568176-44.153007-19.298191-67.892812 29.098821-4.274721 82.955189-12.141232 112.459469-16.481482 3.663462 24.347993 12.176044 47.004527 24.076663 67.420801h-0.066552l0.101364 0.065528c32.727471 56.096629 93.026125 94.078679 162.551011 94.078679 104.524357 0 189.510935-84.989649 189.510934-189.510934 0-104.454733-84.986578-189.514006-189.510934-189.514007-0.406482 0-0.812965 0.204777-1.222519 0.204777-0.472011 0-0.812965-0.204777-1.288048-0.204777-13.495832 0-24.486218 10.988337-24.486218 24.555842v70.33785c-48.359128-48.431824-129.820468-129.82354-152.747308-152.751404 22.927864-22.923769 104.389204-104.385109 152.747308-152.747308v70.744333c0 13.564433 10.991409 24.486218 24.555842 24.486217 0.201705 0 0.406482-0.135153 0.61126-0.135153 0.201705 0 0.406482 0.135153 0.607164 0.135153 166.927096 0 302.78644 135.859344 302.786439 302.852993 0 166.923001-135.859344 302.782344-302.786439 302.782344z"
      fill="#000"></path>
  </g>
</svg>