<svg fill="#000000" viewBox="-2.4 -2.4 28.80 28.80" id="minimize-direction" data-name="Flat Line"
  xmlns="http://www.w3.org/2000/svg" transform="matrix(-1, 0, 0, -1, 0, 0)rotate(0)">
  <g id="SVGRepo_bgCarrier" stroke-width="0"></g>
  <g id="SVGRepo_tracerCarrier" stroke-linecap="round" stroke-linejoin="round" stroke="#ff0000" stroke-width="0.096">
  </g>
  <g id="SVGRepo_iconCarrier">
    <path id="secondary"
      d="M15,10l3.72-.69a1,1,0,0,0,.58-1.55l-3-3a1,1,0,0,0-1.55.58L14,9A.81.81,0,0,0,15,10ZM9,14l-3.72.69a1,1,0,0,0-.58,1.55l3,3a1,1,0,0,0,1.55-.58L10,15A.81.81,0,0,0,9,14Z"
      style="fill: #F4CE73; stroke-width:1.008;"></path>
    <path id="primary"
      d="M21,3,18,6M3,21l3-3m9-8,3.72-.69a1,1,0,0,0,.58-1.55l-3-3a1,1,0,0,0-1.55.58L14,9A.81.81,0,0,0,15,10ZM9,14l-3.72.69a1,1,0,0,0-.58,1.55l3,3a1,1,0,0,0,1.55-.58L10,15A.81.81,0,0,0,9,14Z"
      style="fill: none; stroke: #000000; stroke-linecap: round; stroke-linejoin: round; stroke-width:1.5;"></path>
  </g>
</svg>